Coordinates
version=1
nRows=6
nColumns=34
inDegrees=yes

Units are S.I. units (second, meters, Newtons, ...)
If the header above contains a line with 'inDegrees', this indicates whether rotational values are in degrees (yes) or radians (no).

endheader
time	pelvis_tilt	pelvis_list	pelvis_rotation	pelvis_tx	pelvis_ty	pelvis_tz	hip_flexion_r	hip_adduction_r	hip_rotation_r	knee_angle_r	ankle_angle_r	subtalar_angle_r	mtp_angle_r	hip_flexion_l	hip_adduction_l	hip_rotation_l	knee_angle_l	ankle_angle_l	subtalar_angle_l	mtp_angle_l	lumbar_extension	lumbar_bending	lumbar_rotation	arm_flex_r	arm_add_r	arm_rot_r	elbow_flex_r	pro_sup_r	arm_flex_l	arm_add_l	arm_rot_l	elbow_flex_l	pro_sup_l
      2.40000000	    -14.15455208	     -0.07467427	      3.32027482	      0.91629984	      1.03752826	     -0.30044812	     34.21066241	    -10.05739047	     -5.50019093	     27.97316735	      4.03483386	    -12.99113090	      0.00000000	     32.79081905	     -9.00510904	     -0.98961197	     23.98360048	      3.69426232	     -0.14484098	      0.00000000	    -19.85614936	      0.87323163	     -0.90261570	     46.71503055	    -12.38193347	     28.16514539	     82.69139396	     85.94202721	     48.16142144	     -5.67245030	     29.56317620	     77.40105949	     67.95973378
      2.41666670	    -15.71916526	      0.22724881	      3.39207933	      0.90672929	      1.02876549	     -0.29840853	     37.67205236	    -10.89171566	     -5.36204495	     30.32642109	      4.19906367	    -12.16247978	      0.00000000	     36.31136787	     -8.87245002	     -1.19465322	     26.18932073	      4.01636034	     -0.38423682	      0.00000000	    -21.04683084	      0.25553099	     -1.53236210	     49.95818052	    -11.88715763	     27.91632802	     83.14011027	     85.70249678	     52.19144392	     -5.99539288	     29.29070373	     77.12787731	     67.55917166
      2.43333330	    -17.36823519	      0.45200787	      3.52870416	      0.89854989	      1.01834057	     -0.29800604	     41.24074713	    -11.67107778	     -5.34429135	     32.66590169	      4.10425309	    -11.41104904	      0.00000000	     39.80340555	     -8.68521368	     -1.19664040	     28.24296945	      4.37952897	     -0.38152115	      0.00000000	    -22.08503219	     -0.19202537	     -1.55535213	     53.62049737	    -11.75716590	     27.04487703	     83.44468949	     85.44705473	     55.69437210	     -5.73493900	     29.51014877	     78.17974794	     67.23323619
      2.45000000	    -18.82066732	      0.66369089	      3.71379739	      0.88922446	      1.01403855	     -0.29447254	     44.45667285	    -12.28951141	     -5.21968671	     34.75837080	      3.83583266	    -10.78821613	      0.00000000	     43.06758549	     -8.51218933	     -1.32955951	     30.25284354	      4.62970726	     -0.41903984	      0.00000000	    -23.61261885	     -0.76230170	     -1.70071978	     56.76606083	    -11.33951333	     26.40416618	     83.37391051	     85.27306206	     59.10350244	     -5.67475828	     29.38727072	     78.40358151	     66.85531053
      2.46666670	    -19.93810349	      0.70935222	      3.94060405	      0.88460166	      1.00524085	     -0.29430745	     47.28941891	    -12.74432266	     -5.14386929	     36.89871512	      3.61635240	    -10.62566503	      0.00000000	     45.77740523	     -8.50957035	     -1.42502466	     32.12151062	      5.13175342	     -0.26835908	      0.00000000	    -25.29828977	     -0.87700616	     -2.06717941	     59.92030959	    -10.83708790	     25.45468263	     83.68204580	     85.15594700	     62.91097618	     -5.31634256	     28.96067655	     78.44698827	     66.62445196
      2.48333330	    -21.55067288	      0.84761995	      4.28260966	      0.87383639	      0.99136268	     -0.29544077	     50.87540827	    -13.47835141	     -4.83970178	     39.22650542	      3.49542969	    -10.38575479	      0.00000000	     49.34356392	     -8.41606505	     -1.75913571	     34.45787807	      5.59869923	      0.10809234	      0.00000000	    -26.34225356	     -1.10964796	     -2.36110957	     63.26614102	    -10.51929211	     24.24212562	     83.94494711	     84.94473592	     66.80145038	     -4.91937875	     29.46233460	     78.22690437	     66.22344223
